<mxfile host="app.diagrams.net" modified="2023-03-22T18:58:46.361Z" agent="5.0 (Windows NT 10.0; Win64; x64) AppleWebKit/537.36 (KHTML, like Gecko) Chrome/111.0.0.0 Safari/537.36" etag="uRlkpNZKPRCz-bEeaV2D" version="21.0.6" type="github">
  <diagram name="Сторінка-1" id="r7dgkBsnEA_tc87b1bkr">
    <mxGraphModel dx="3827" dy="2829" grid="1" gridSize="10" guides="1" tooltips="1" connect="1" arrows="1" fold="1" page="1" pageScale="1" pageWidth="827" pageHeight="1169" math="0" shadow="0">
      <root>
        <mxCell id="0" />
        <mxCell id="1" parent="0" />
        <mxCell id="TdsH9A1-HdxsGDDty9bt-1" value="" style="ellipse;whiteSpace=wrap;html=1;aspect=fixed;fillColor=#e51400;strokeColor=#B20000;fontColor=#ffffff;" vertex="1" parent="1">
          <mxGeometry x="370" y="760" width="20" height="20" as="geometry" />
        </mxCell>
        <mxCell id="TdsH9A1-HdxsGDDty9bt-2" value="" style="ellipse;whiteSpace=wrap;html=1;aspect=fixed;fillColor=#e51400;strokeColor=#B20000;fontColor=#ffffff;" vertex="1" parent="1">
          <mxGeometry x="210" y="940" width="20" height="20" as="geometry" />
        </mxCell>
        <mxCell id="TdsH9A1-HdxsGDDty9bt-4" value="" style="ellipse;whiteSpace=wrap;html=1;aspect=fixed;fillColor=#e51400;strokeColor=#B20000;fontColor=#ffffff;" vertex="1" parent="1">
          <mxGeometry x="404" y="870" width="20" height="20" as="geometry" />
        </mxCell>
        <mxCell id="TdsH9A1-HdxsGDDty9bt-5" value="" style="ellipse;whiteSpace=wrap;html=1;aspect=fixed;fillColor=#e51400;strokeColor=#B20000;fontColor=#ffffff;" vertex="1" parent="1">
          <mxGeometry x="510" y="760" width="20" height="20" as="geometry" />
        </mxCell>
        <mxCell id="TdsH9A1-HdxsGDDty9bt-6" value="" style="ellipse;whiteSpace=wrap;html=1;aspect=fixed;fillColor=#e51400;strokeColor=#B20000;fontColor=#ffffff;" vertex="1" parent="1">
          <mxGeometry x="350" y="980" width="20" height="20" as="geometry" />
        </mxCell>
        <mxCell id="TdsH9A1-HdxsGDDty9bt-7" value="" style="ellipse;whiteSpace=wrap;html=1;aspect=fixed;fillColor=#e51400;strokeColor=#B20000;fontColor=#ffffff;" vertex="1" parent="1">
          <mxGeometry x="510" y="920" width="20" height="20" as="geometry" />
        </mxCell>
        <mxCell id="TdsH9A1-HdxsGDDty9bt-8" value="" style="ellipse;whiteSpace=wrap;html=1;aspect=fixed;fillColor=#e51400;strokeColor=#B20000;fontColor=#ffffff;" vertex="1" parent="1">
          <mxGeometry x="590" y="850" width="20" height="20" as="geometry" />
        </mxCell>
        <mxCell id="TdsH9A1-HdxsGDDty9bt-9" value="" style="ellipse;whiteSpace=wrap;html=1;aspect=fixed;fillColor=#e51400;strokeColor=#B20000;fontColor=#ffffff;" vertex="1" parent="1">
          <mxGeometry x="290" y="830" width="20" height="20" as="geometry" />
        </mxCell>
        <mxCell id="TdsH9A1-HdxsGDDty9bt-10" value="" style="ellipse;whiteSpace=wrap;html=1;aspect=fixed;fillColor=#e51400;strokeColor=#B20000;fontColor=#ffffff;" vertex="1" parent="1">
          <mxGeometry x="440" y="680" width="20" height="20" as="geometry" />
        </mxCell>
        <mxCell id="TdsH9A1-HdxsGDDty9bt-11" value="" style="ellipse;whiteSpace=wrap;html=1;aspect=fixed;fillColor=#e51400;strokeColor=#B20000;fontColor=#ffffff;" vertex="1" parent="1">
          <mxGeometry x="430" y="940" width="20" height="20" as="geometry" />
        </mxCell>
        <mxCell id="TdsH9A1-HdxsGDDty9bt-12" value="" style="ellipse;whiteSpace=wrap;html=1;aspect=fixed;fillColor=#e51400;strokeColor=#B20000;fontColor=#ffffff;" vertex="1" parent="1">
          <mxGeometry x="430" y="780" width="20" height="20" as="geometry" />
        </mxCell>
        <mxCell id="TdsH9A1-HdxsGDDty9bt-14" value="" style="ellipse;whiteSpace=wrap;html=1;aspect=fixed;fillColor=#e51400;strokeColor=#B20000;fontColor=#ffffff;" vertex="1" parent="1">
          <mxGeometry x="290" y="760" width="20" height="20" as="geometry" />
        </mxCell>
        <mxCell id="TdsH9A1-HdxsGDDty9bt-15" value="" style="ellipse;whiteSpace=wrap;html=1;aspect=fixed;fillColor=#e51400;strokeColor=#B20000;fontColor=#ffffff;" vertex="1" parent="1">
          <mxGeometry x="563" y="788" width="20" height="20" as="geometry" />
        </mxCell>
        <mxCell id="TdsH9A1-HdxsGDDty9bt-16" value="" style="ellipse;whiteSpace=wrap;html=1;aspect=fixed;fillColor=#e51400;strokeColor=#B20000;fontColor=#ffffff;" vertex="1" parent="1">
          <mxGeometry x="520" y="690" width="20" height="20" as="geometry" />
        </mxCell>
        <mxCell id="TdsH9A1-HdxsGDDty9bt-18" value="" style="ellipse;whiteSpace=wrap;html=1;aspect=fixed;fillColor=#e51400;strokeColor=#B20000;fontColor=#ffffff;" vertex="1" parent="1">
          <mxGeometry x="351" y="676" width="20" height="20" as="geometry" />
        </mxCell>
        <mxCell id="TdsH9A1-HdxsGDDty9bt-20" value="" style="ellipse;whiteSpace=wrap;html=1;aspect=fixed;fillColor=#e51400;strokeColor=#B20000;fontColor=#ffffff;" vertex="1" parent="1">
          <mxGeometry x="520" y="890" width="20" height="20" as="geometry" />
        </mxCell>
        <mxCell id="TdsH9A1-HdxsGDDty9bt-23" value="" style="ellipse;whiteSpace=wrap;html=1;aspect=fixed;fillColor=#e51400;strokeColor=#B20000;fontColor=#ffffff;" vertex="1" parent="1">
          <mxGeometry x="200" y="850" width="20" height="20" as="geometry" />
        </mxCell>
        <mxCell id="TdsH9A1-HdxsGDDty9bt-25" value="" style="ellipse;whiteSpace=wrap;html=1;aspect=fixed;fillColor=#e51400;strokeColor=#B20000;fontColor=#ffffff;" vertex="1" parent="1">
          <mxGeometry x="190" y="750" width="20" height="20" as="geometry" />
        </mxCell>
        <mxCell id="TdsH9A1-HdxsGDDty9bt-27" value="" style="ellipse;whiteSpace=wrap;html=1;aspect=fixed;fillColor=#e51400;strokeColor=#B20000;fontColor=#ffffff;" vertex="1" parent="1">
          <mxGeometry x="480" y="610" width="20" height="20" as="geometry" />
        </mxCell>
        <mxCell id="TdsH9A1-HdxsGDDty9bt-28" value="" style="ellipse;whiteSpace=wrap;html=1;aspect=fixed;fillColor=#e51400;strokeColor=#B20000;fontColor=#ffffff;" vertex="1" parent="1">
          <mxGeometry x="380" y="585" width="20" height="20" as="geometry" />
        </mxCell>
        <mxCell id="TdsH9A1-HdxsGDDty9bt-29" value="" style="ellipse;whiteSpace=wrap;html=1;aspect=fixed;fillColor=#e51400;strokeColor=#B20000;fontColor=#ffffff;" vertex="1" parent="1">
          <mxGeometry x="250" y="650" width="20" height="20" as="geometry" />
        </mxCell>
        <mxCell id="TdsH9A1-HdxsGDDty9bt-31" value="" style="ellipse;whiteSpace=wrap;html=1;aspect=fixed;fillColor=#e51400;strokeColor=#B20000;fontColor=#ffffff;" vertex="1" parent="1">
          <mxGeometry x="460" y="1040" width="20" height="20" as="geometry" />
        </mxCell>
        <mxCell id="TdsH9A1-HdxsGDDty9bt-32" value="" style="ellipse;whiteSpace=wrap;html=1;aspect=fixed;fillColor=#e51400;strokeColor=#B20000;fontColor=#ffffff;" vertex="1" parent="1">
          <mxGeometry x="590" y="980" width="20" height="20" as="geometry" />
        </mxCell>
        <mxCell id="TdsH9A1-HdxsGDDty9bt-34" value="" style="ellipse;whiteSpace=wrap;html=1;aspect=fixed;fillColor=#e51400;strokeColor=#B20000;fontColor=#ffffff;" vertex="1" parent="1">
          <mxGeometry x="600" y="660" width="20" height="20" as="geometry" />
        </mxCell>
        <mxCell id="TdsH9A1-HdxsGDDty9bt-35" value="" style="ellipse;whiteSpace=wrap;html=1;aspect=fixed;fillColor=#e51400;strokeColor=#B20000;fontColor=#ffffff;" vertex="1" parent="1">
          <mxGeometry x="550" y="550" width="20" height="20" as="geometry" />
        </mxCell>
        <mxCell id="TdsH9A1-HdxsGDDty9bt-36" value="" style="ellipse;whiteSpace=wrap;html=1;aspect=fixed;fillColor=#e51400;strokeColor=#B20000;fontColor=#ffffff;" vertex="1" parent="1">
          <mxGeometry x="650" y="920" width="20" height="20" as="geometry" />
        </mxCell>
        <mxCell id="TdsH9A1-HdxsGDDty9bt-37" value="" style="ellipse;whiteSpace=wrap;html=1;aspect=fixed;fillColor=#e51400;strokeColor=#B20000;fontColor=#ffffff;" vertex="1" parent="1">
          <mxGeometry x="250" y="1050" width="20" height="20" as="geometry" />
        </mxCell>
        <mxCell id="TdsH9A1-HdxsGDDty9bt-38" value="" style="ellipse;whiteSpace=wrap;html=1;aspect=fixed;fillColor=#e51400;strokeColor=#B20000;fontColor=#ffffff;" vertex="1" parent="1">
          <mxGeometry x="270" y="490" width="20" height="20" as="geometry" />
        </mxCell>
        <mxCell id="TdsH9A1-HdxsGDDty9bt-39" value="" style="ellipse;whiteSpace=wrap;html=1;aspect=fixed;fillColor=#e51400;strokeColor=#B20000;fontColor=#ffffff;" vertex="1" parent="1">
          <mxGeometry x="120" y="585" width="20" height="20" as="geometry" />
        </mxCell>
        <mxCell id="TdsH9A1-HdxsGDDty9bt-40" value="" style="ellipse;whiteSpace=wrap;html=1;aspect=fixed;fillColor=#e51400;strokeColor=#B20000;fontColor=#ffffff;" vertex="1" parent="1">
          <mxGeometry x="110" y="980" width="20" height="20" as="geometry" />
        </mxCell>
        <mxCell id="TdsH9A1-HdxsGDDty9bt-41" value="" style="ellipse;whiteSpace=wrap;html=1;aspect=fixed;fillColor=#e51400;strokeColor=#B20000;fontColor=#ffffff;" vertex="1" parent="1">
          <mxGeometry x="370" y="1100" width="20" height="20" as="geometry" />
        </mxCell>
        <mxCell id="TdsH9A1-HdxsGDDty9bt-42" value="" style="ellipse;whiteSpace=wrap;html=1;aspect=fixed;fillColor=#e51400;strokeColor=#B20000;fontColor=#ffffff;" vertex="1" parent="1">
          <mxGeometry x="690" y="780" width="20" height="20" as="geometry" />
        </mxCell>
        <mxCell id="TdsH9A1-HdxsGDDty9bt-43" value="" style="ellipse;whiteSpace=wrap;html=1;aspect=fixed;fillColor=#e51400;strokeColor=#B20000;fontColor=#ffffff;" vertex="1" parent="1">
          <mxGeometry x="70" y="850" width="20" height="20" as="geometry" />
        </mxCell>
        <mxCell id="TdsH9A1-HdxsGDDty9bt-45" value="" style="ellipse;whiteSpace=wrap;html=1;aspect=fixed;fillColor=#e51400;strokeColor=#B20000;fontColor=#ffffff;" vertex="1" parent="1">
          <mxGeometry x="70" y="730" width="20" height="20" as="geometry" />
        </mxCell>
        <mxCell id="TdsH9A1-HdxsGDDty9bt-46" value="" style="ellipse;whiteSpace=wrap;html=1;aspect=fixed;fillColor=#e51400;strokeColor=#B20000;fontColor=#ffffff;" vertex="1" parent="1">
          <mxGeometry x="580" y="1060" width="20" height="20" as="geometry" />
        </mxCell>
        <mxCell id="TdsH9A1-HdxsGDDty9bt-47" value="" style="ellipse;whiteSpace=wrap;html=1;aspect=fixed;fillColor=#e51400;strokeColor=#B20000;fontColor=#ffffff;" vertex="1" parent="1">
          <mxGeometry x="450" y="470" width="20" height="20" as="geometry" />
        </mxCell>
        <mxCell id="TdsH9A1-HdxsGDDty9bt-48" value="" style="ellipse;whiteSpace=wrap;html=1;aspect=fixed;fillColor=#e51400;strokeColor=#B20000;fontColor=#ffffff;" vertex="1" parent="1">
          <mxGeometry x="140" y="460" width="20" height="20" as="geometry" />
        </mxCell>
        <mxCell id="TdsH9A1-HdxsGDDty9bt-49" value="" style="ellipse;whiteSpace=wrap;html=1;aspect=fixed;fillColor=#e51400;strokeColor=#B20000;fontColor=#ffffff;" vertex="1" parent="1">
          <mxGeometry x="210" y="550" width="20" height="20" as="geometry" />
        </mxCell>
        <mxCell id="TdsH9A1-HdxsGDDty9bt-50" value="" style="ellipse;whiteSpace=wrap;html=1;aspect=fixed;fillColor=#e51400;strokeColor=#B20000;fontColor=#ffffff;" vertex="1" parent="1">
          <mxGeometry x="710" y="1000" width="20" height="20" as="geometry" />
        </mxCell>
        <mxCell id="TdsH9A1-HdxsGDDty9bt-51" value="" style="ellipse;whiteSpace=wrap;html=1;aspect=fixed;fillColor=#e51400;strokeColor=#B20000;fontColor=#ffffff;" vertex="1" parent="1">
          <mxGeometry x="360" y="380" width="20" height="20" as="geometry" />
        </mxCell>
        <mxCell id="TdsH9A1-HdxsGDDty9bt-52" value="" style="ellipse;whiteSpace=wrap;html=1;aspect=fixed;fillColor=#e51400;strokeColor=#B20000;fontColor=#ffffff;" vertex="1" parent="1">
          <mxGeometry x="670" y="530" width="20" height="20" as="geometry" />
        </mxCell>
        <mxCell id="TdsH9A1-HdxsGDDty9bt-53" value="" style="ellipse;whiteSpace=wrap;html=1;aspect=fixed;fillColor=#e51400;strokeColor=#B20000;fontColor=#ffffff;" vertex="1" parent="1">
          <mxGeometry x="690" y="660" width="20" height="20" as="geometry" />
        </mxCell>
        <mxCell id="TdsH9A1-HdxsGDDty9bt-54" value="" style="ellipse;whiteSpace=wrap;html=1;aspect=fixed;fillColor=#e51400;strokeColor=#B20000;fontColor=#ffffff;" vertex="1" parent="1">
          <mxGeometry x="730" y="880" width="20" height="20" as="geometry" />
        </mxCell>
        <mxCell id="TdsH9A1-HdxsGDDty9bt-55" value="" style="ellipse;whiteSpace=wrap;html=1;aspect=fixed;fillColor=#e51400;strokeColor=#B20000;fontColor=#ffffff;" vertex="1" parent="1">
          <mxGeometry x="-20" y="620" width="20" height="20" as="geometry" />
        </mxCell>
        <mxCell id="TdsH9A1-HdxsGDDty9bt-56" value="" style="ellipse;whiteSpace=wrap;html=1;aspect=fixed;fillColor=#e51400;strokeColor=#B20000;fontColor=#ffffff;" vertex="1" parent="1">
          <mxGeometry x="-10" y="470" width="20" height="20" as="geometry" />
        </mxCell>
        <mxCell id="TdsH9A1-HdxsGDDty9bt-57" value="" style="ellipse;whiteSpace=wrap;html=1;aspect=fixed;fillColor=#e51400;strokeColor=#B20000;fontColor=#ffffff;" vertex="1" parent="1">
          <mxGeometry x="-70" y="780" width="20" height="20" as="geometry" />
        </mxCell>
        <mxCell id="TdsH9A1-HdxsGDDty9bt-150" value="" style="ellipse;whiteSpace=wrap;html=1;aspect=fixed;fillColor=#e51400;strokeColor=#B20000;fontColor=#ffffff;" vertex="1" parent="1">
          <mxGeometry x="350" y="490" width="20" height="20" as="geometry" />
        </mxCell>
        <mxCell id="TdsH9A1-HdxsGDDty9bt-152" value="" style="ellipse;whiteSpace=wrap;html=1;aspect=fixed;fillColor=#e51400;strokeColor=#B20000;fontColor=#ffffff;" vertex="1" parent="1">
          <mxGeometry x="380" y="400" width="20" height="20" as="geometry" />
        </mxCell>
        <mxCell id="TdsH9A1-HdxsGDDty9bt-153" value="" style="ellipse;whiteSpace=wrap;html=1;aspect=fixed;fillColor=#e51400;strokeColor=#B20000;fontColor=#ffffff;" vertex="1" parent="1">
          <mxGeometry x="550" y="420" width="20" height="20" as="geometry" />
        </mxCell>
        <mxCell id="TdsH9A1-HdxsGDDty9bt-154" value="" style="ellipse;whiteSpace=wrap;html=1;aspect=fixed;fillColor=#e51400;strokeColor=#B20000;fontColor=#ffffff;" vertex="1" parent="1">
          <mxGeometry x="245" y="403" width="20" height="20" as="geometry" />
        </mxCell>
        <mxCell id="TdsH9A1-HdxsGDDty9bt-155" value="" style="ellipse;whiteSpace=wrap;html=1;aspect=fixed;fillColor=#e51400;strokeColor=#B20000;fontColor=#ffffff;" vertex="1" parent="1">
          <mxGeometry x="-30" y="910" width="20" height="20" as="geometry" />
        </mxCell>
        <mxCell id="TdsH9A1-HdxsGDDty9bt-156" value="" style="ellipse;whiteSpace=wrap;html=1;aspect=fixed;fillColor=#e51400;strokeColor=#B20000;fontColor=#ffffff;" vertex="1" parent="1">
          <mxGeometry x="400" y="220" width="20" height="20" as="geometry" />
        </mxCell>
        <mxCell id="TdsH9A1-HdxsGDDty9bt-157" value="" style="ellipse;whiteSpace=wrap;html=1;aspect=fixed;fillColor=#e51400;strokeColor=#B20000;fontColor=#ffffff;" vertex="1" parent="1">
          <mxGeometry x="680" y="420" width="20" height="20" as="geometry" />
        </mxCell>
        <mxCell id="TdsH9A1-HdxsGDDty9bt-158" value="" style="ellipse;whiteSpace=wrap;html=1;aspect=fixed;fillColor=#e51400;strokeColor=#B20000;fontColor=#ffffff;" vertex="1" parent="1">
          <mxGeometry x="430" y="550" width="20" height="20" as="geometry" />
        </mxCell>
        <mxCell id="TdsH9A1-HdxsGDDty9bt-159" value="" style="ellipse;whiteSpace=wrap;html=1;aspect=fixed;fillColor=#e51400;strokeColor=#B20000;fontColor=#ffffff;" vertex="1" parent="1">
          <mxGeometry x="300" y="575" width="20" height="20" as="geometry" />
        </mxCell>
        <mxCell id="TdsH9A1-HdxsGDDty9bt-160" value="" style="ellipse;whiteSpace=wrap;html=1;aspect=fixed;fillColor=#e51400;strokeColor=#B20000;fontColor=#ffffff;" vertex="1" parent="1">
          <mxGeometry x="140" y="660" width="20" height="20" as="geometry" />
        </mxCell>
        <mxCell id="TdsH9A1-HdxsGDDty9bt-161" value="" style="ellipse;whiteSpace=wrap;html=1;aspect=fixed;fillColor=#e51400;strokeColor=#B20000;fontColor=#ffffff;" vertex="1" parent="1">
          <mxGeometry x="130" y="910" width="20" height="20" as="geometry" />
        </mxCell>
        <mxCell id="TdsH9A1-HdxsGDDty9bt-163" value="" style="ellipse;whiteSpace=wrap;html=1;aspect=fixed;fillColor=#e51400;strokeColor=#B20000;fontColor=#ffffff;" vertex="1" parent="1">
          <mxGeometry x="480" y="500" width="20" height="20" as="geometry" />
        </mxCell>
        <mxCell id="TdsH9A1-HdxsGDDty9bt-164" value="" style="ellipse;whiteSpace=wrap;html=1;aspect=fixed;fillColor=#e51400;strokeColor=#B20000;fontColor=#ffffff;" vertex="1" parent="1">
          <mxGeometry x="394" y="650" width="20" height="20" as="geometry" />
        </mxCell>
        <mxCell id="TdsH9A1-HdxsGDDty9bt-166" value="" style="ellipse;whiteSpace=wrap;html=1;aspect=fixed;fillColor=#e51400;strokeColor=#B20000;fontColor=#ffffff;" vertex="1" parent="1">
          <mxGeometry x="390" y="520" width="20" height="20" as="geometry" />
        </mxCell>
        <mxCell id="TdsH9A1-HdxsGDDty9bt-167" value="" style="ellipse;whiteSpace=wrap;html=1;aspect=fixed;fillColor=#e51400;strokeColor=#000000;fontColor=#ffffff;strokeWidth=10;" vertex="1" parent="1">
          <mxGeometry x="340" y="540" width="30" height="30" as="geometry" />
        </mxCell>
        <mxCell id="TdsH9A1-HdxsGDDty9bt-168" value="" style="ellipse;whiteSpace=wrap;html=1;aspect=fixed;fillColor=#e51400;strokeColor=#B20000;fontColor=#ffffff;" vertex="1" parent="1">
          <mxGeometry x="300" y="530" width="20" height="20" as="geometry" />
        </mxCell>
        <mxCell id="TdsH9A1-HdxsGDDty9bt-169" value="" style="ellipse;whiteSpace=wrap;html=1;aspect=fixed;fillColor=#e51400;strokeColor=#B20000;fontColor=#ffffff;" vertex="1" parent="1">
          <mxGeometry x="330" y="620" width="20" height="20" as="geometry" />
        </mxCell>
        <mxCell id="TdsH9A1-HdxsGDDty9bt-170" value="" style="ellipse;whiteSpace=wrap;html=1;aspect=fixed;fillColor=#e51400;strokeColor=#B20000;fontColor=#ffffff;" vertex="1" parent="1">
          <mxGeometry x="320" y="500" width="20" height="20" as="geometry" />
        </mxCell>
        <mxCell id="TdsH9A1-HdxsGDDty9bt-171" value="" style="ellipse;whiteSpace=wrap;html=1;aspect=fixed;fillColor=#e51400;strokeColor=#B20000;fontColor=#ffffff;" vertex="1" parent="1">
          <mxGeometry x="380" y="555" width="20" height="20" as="geometry" />
        </mxCell>
        <mxCell id="TdsH9A1-HdxsGDDty9bt-172" value="" style="ellipse;whiteSpace=wrap;html=1;aspect=fixed;fillColor=#e51400;strokeColor=#B20000;fontColor=#ffffff;" vertex="1" parent="1">
          <mxGeometry x="340" y="585" width="20" height="20" as="geometry" />
        </mxCell>
        <mxCell id="TdsH9A1-HdxsGDDty9bt-173" value="" style="ellipse;whiteSpace=wrap;html=1;aspect=fixed;fillColor=#e51400;strokeColor=#B20000;fontColor=#ffffff;" vertex="1" parent="1">
          <mxGeometry x="265" y="555" width="20" height="20" as="geometry" />
        </mxCell>
        <mxCell id="TdsH9A1-HdxsGDDty9bt-174" value="" style="ellipse;whiteSpace=wrap;html=1;aspect=fixed;fillColor=#e51400;strokeColor=#B20000;fontColor=#ffffff;" vertex="1" parent="1">
          <mxGeometry x="430" y="585" width="20" height="20" as="geometry" />
        </mxCell>
        <mxCell id="TdsH9A1-HdxsGDDty9bt-176" value="" style="ellipse;whiteSpace=wrap;html=1;aspect=fixed;fillColor=#e51400;strokeColor=#000000;fontColor=#ffffff;strokeWidth=10;" vertex="1" parent="1">
          <mxGeometry x="310" y="910" width="30" height="30" as="geometry" />
        </mxCell>
        <mxCell id="TdsH9A1-HdxsGDDty9bt-178" value="" style="ellipse;whiteSpace=wrap;html=1;aspect=fixed;fillColor=#e51400;strokeColor=#B20000;fontColor=#ffffff;" vertex="1" parent="1">
          <mxGeometry x="346" y="859" width="20" height="20" as="geometry" />
        </mxCell>
        <mxCell id="TdsH9A1-HdxsGDDty9bt-180" value="" style="ellipse;whiteSpace=wrap;html=1;aspect=fixed;fillColor=#e51400;strokeColor=#B20000;fontColor=#ffffff;" vertex="1" parent="1">
          <mxGeometry x="360" y="940" width="20" height="20" as="geometry" />
        </mxCell>
        <mxCell id="TdsH9A1-HdxsGDDty9bt-181" value="" style="ellipse;whiteSpace=wrap;html=1;aspect=fixed;fillColor=#e51400;strokeColor=#B20000;fontColor=#ffffff;" vertex="1" parent="1">
          <mxGeometry x="300" y="950" width="20" height="20" as="geometry" />
        </mxCell>
        <mxCell id="TdsH9A1-HdxsGDDty9bt-182" value="" style="ellipse;whiteSpace=wrap;html=1;aspect=fixed;fillColor=#e51400;strokeColor=#B20000;fontColor=#ffffff;" vertex="1" parent="1">
          <mxGeometry x="330" y="960" width="20" height="20" as="geometry" />
        </mxCell>
        <mxCell id="TdsH9A1-HdxsGDDty9bt-183" value="" style="ellipse;whiteSpace=wrap;html=1;aspect=fixed;fillColor=#e51400;strokeColor=#B20000;fontColor=#ffffff;" vertex="1" parent="1">
          <mxGeometry x="350" y="900" width="20" height="20" as="geometry" />
        </mxCell>
        <mxCell id="TdsH9A1-HdxsGDDty9bt-184" value="" style="ellipse;whiteSpace=wrap;html=1;aspect=fixed;fillColor=#e51400;strokeColor=#B20000;fontColor=#ffffff;" vertex="1" parent="1">
          <mxGeometry x="464" y="930" width="20" height="20" as="geometry" />
        </mxCell>
        <mxCell id="TdsH9A1-HdxsGDDty9bt-186" value="" style="ellipse;whiteSpace=wrap;html=1;aspect=fixed;fillColor=#e51400;strokeColor=#B20000;fontColor=#ffffff;" vertex="1" parent="1">
          <mxGeometry x="270" y="920" width="20" height="20" as="geometry" />
        </mxCell>
        <mxCell id="TdsH9A1-HdxsGDDty9bt-187" value="" style="ellipse;whiteSpace=wrap;html=1;aspect=fixed;fillColor=#e51400;strokeColor=#B20000;fontColor=#ffffff;" vertex="1" parent="1">
          <mxGeometry x="310" y="870" width="20" height="20" as="geometry" />
        </mxCell>
        <mxCell id="TdsH9A1-HdxsGDDty9bt-188" value="" style="ellipse;whiteSpace=wrap;html=1;aspect=fixed;fillColor=#e51400;strokeColor=#B20000;fontColor=#ffffff;" vertex="1" parent="1">
          <mxGeometry x="280" y="890" width="20" height="20" as="geometry" />
        </mxCell>
        <mxCell id="TdsH9A1-HdxsGDDty9bt-189" value="" style="ellipse;whiteSpace=wrap;html=1;aspect=fixed;fillColor=#e51400;strokeColor=#B20000;fontColor=#ffffff;" vertex="1" parent="1">
          <mxGeometry x="380" y="910" width="20" height="20" as="geometry" />
        </mxCell>
        <mxCell id="TdsH9A1-HdxsGDDty9bt-190" value="" style="ellipse;whiteSpace=wrap;html=1;aspect=fixed;fillColor=#e51400;strokeColor=#B20000;fontColor=#ffffff;" vertex="1" parent="1">
          <mxGeometry x="260" y="960" width="20" height="20" as="geometry" />
        </mxCell>
        <mxCell id="TdsH9A1-HdxsGDDty9bt-192" value="" style="ellipse;whiteSpace=wrap;html=1;aspect=fixed;fillColor=#e51400;strokeColor=#B20000;fontColor=#ffffff;" vertex="1" parent="1">
          <mxGeometry x="290" y="1000" width="20" height="20" as="geometry" />
        </mxCell>
        <mxCell id="TdsH9A1-HdxsGDDty9bt-193" value="" style="ellipse;whiteSpace=wrap;html=1;aspect=fixed;fillColor=#e51400;strokeColor=#B20000;fontColor=#ffffff;" vertex="1" parent="1">
          <mxGeometry x="404" y="990" width="20" height="20" as="geometry" />
        </mxCell>
        <mxCell id="TdsH9A1-HdxsGDDty9bt-194" value="" style="ellipse;whiteSpace=wrap;html=1;aspect=fixed;fillColor=#e51400;strokeColor=#B20000;fontColor=#ffffff;" vertex="1" parent="1">
          <mxGeometry x="340" y="1030" width="20" height="20" as="geometry" />
        </mxCell>
        <mxCell id="TdsH9A1-HdxsGDDty9bt-195" value="" style="ellipse;whiteSpace=wrap;html=1;aspect=fixed;fillColor=#e51400;strokeColor=#000000;fontColor=#ffffff;strokeWidth=10;" vertex="1" parent="1">
          <mxGeometry x="29" y="740" width="30" height="30" as="geometry" />
        </mxCell>
        <mxCell id="TdsH9A1-HdxsGDDty9bt-197" value="" style="ellipse;whiteSpace=wrap;html=1;aspect=fixed;fillColor=#e51400;strokeColor=#B20000;fontColor=#ffffff;" vertex="1" parent="1">
          <mxGeometry x="100" y="710" width="20" height="20" as="geometry" />
        </mxCell>
        <mxCell id="TdsH9A1-HdxsGDDty9bt-198" value="" style="ellipse;whiteSpace=wrap;html=1;aspect=fixed;fillColor=#e51400;strokeColor=#B20000;fontColor=#ffffff;" vertex="1" parent="1">
          <mxGeometry x="30" y="690" width="20" height="20" as="geometry" />
        </mxCell>
        <mxCell id="TdsH9A1-HdxsGDDty9bt-199" value="" style="ellipse;whiteSpace=wrap;html=1;aspect=fixed;fillColor=#e51400;strokeColor=#B20000;fontColor=#ffffff;" vertex="1" parent="1">
          <mxGeometry x="69" y="790" width="20" height="20" as="geometry" />
        </mxCell>
        <mxCell id="TdsH9A1-HdxsGDDty9bt-200" value="" style="ellipse;whiteSpace=wrap;html=1;aspect=fixed;fillColor=#e51400;strokeColor=#B20000;fontColor=#ffffff;" vertex="1" parent="1">
          <mxGeometry x="-1" y="770" width="20" height="20" as="geometry" />
        </mxCell>
        <mxCell id="TdsH9A1-HdxsGDDty9bt-201" value="" style="ellipse;whiteSpace=wrap;html=1;aspect=fixed;fillColor=#e51400;strokeColor=#B20000;fontColor=#ffffff;" vertex="1" parent="1">
          <mxGeometry x="145" y="780" width="20" height="20" as="geometry" />
        </mxCell>
        <mxCell id="TdsH9A1-HdxsGDDty9bt-202" value="" style="ellipse;whiteSpace=wrap;html=1;aspect=fixed;fillColor=#e51400;strokeColor=#B20000;fontColor=#ffffff;" vertex="1" parent="1">
          <mxGeometry x="75" y="760" width="20" height="20" as="geometry" />
        </mxCell>
        <mxCell id="TdsH9A1-HdxsGDDty9bt-204" value="" style="ellipse;whiteSpace=wrap;html=1;aspect=fixed;fillColor=#e51400;strokeColor=#B20000;fontColor=#ffffff;" vertex="1" parent="1">
          <mxGeometry x="5" y="720" width="20" height="20" as="geometry" />
        </mxCell>
        <mxCell id="TdsH9A1-HdxsGDDty9bt-205" value="" style="ellipse;whiteSpace=wrap;html=1;aspect=fixed;fillColor=#e51400;strokeColor=#B20000;fontColor=#ffffff;" vertex="1" parent="1">
          <mxGeometry x="-65" y="700" width="20" height="20" as="geometry" />
        </mxCell>
        <mxCell id="TdsH9A1-HdxsGDDty9bt-206" value="" style="ellipse;whiteSpace=wrap;html=1;aspect=fixed;fillColor=#e51400;strokeColor=#B20000;fontColor=#ffffff;" vertex="1" parent="1">
          <mxGeometry x="-1" y="809" width="20" height="20" as="geometry" />
        </mxCell>
        <mxCell id="TdsH9A1-HdxsGDDty9bt-207" value="" style="ellipse;whiteSpace=wrap;html=1;aspect=fixed;fillColor=#e51400;strokeColor=#B20000;fontColor=#ffffff;" vertex="1" parent="1">
          <mxGeometry x="39" y="789" width="20" height="20" as="geometry" />
        </mxCell>
        <mxCell id="TdsH9A1-HdxsGDDty9bt-208" value="" style="ellipse;whiteSpace=wrap;html=1;aspect=fixed;fillColor=#e51400;strokeColor=#B20000;fontColor=#ffffff;" vertex="1" parent="1">
          <mxGeometry x="59" y="700" width="20" height="20" as="geometry" />
        </mxCell>
        <mxCell id="TdsH9A1-HdxsGDDty9bt-209" value="" style="ellipse;whiteSpace=wrap;html=1;aspect=fixed;fillColor=#e51400;strokeColor=#B20000;fontColor=#ffffff;" vertex="1" parent="1">
          <mxGeometry x="-40" y="1090" width="20" height="20" as="geometry" />
        </mxCell>
        <mxCell id="TdsH9A1-HdxsGDDty9bt-210" value="" style="ellipse;whiteSpace=wrap;html=1;aspect=fixed;fillColor=#e51400;strokeColor=#B20000;fontColor=#ffffff;" vertex="1" parent="1">
          <mxGeometry x="150" y="1110" width="20" height="20" as="geometry" />
        </mxCell>
        <mxCell id="TdsH9A1-HdxsGDDty9bt-211" value="" style="ellipse;whiteSpace=wrap;html=1;aspect=fixed;fillColor=#e51400;strokeColor=#B20000;fontColor=#ffffff;" vertex="1" parent="1">
          <mxGeometry x="374" y="1250" width="20" height="20" as="geometry" />
        </mxCell>
        <mxCell id="TdsH9A1-HdxsGDDty9bt-212" value="" style="ellipse;whiteSpace=wrap;html=1;aspect=fixed;fillColor=#e51400;strokeColor=#B20000;fontColor=#ffffff;" vertex="1" parent="1">
          <mxGeometry x="640" y="1360" width="20" height="20" as="geometry" />
        </mxCell>
        <mxCell id="TdsH9A1-HdxsGDDty9bt-213" value="" style="ellipse;whiteSpace=wrap;html=1;aspect=fixed;fillColor=#e51400;strokeColor=#B20000;fontColor=#ffffff;" vertex="1" parent="1">
          <mxGeometry x="827" y="1149" width="20" height="20" as="geometry" />
        </mxCell>
        <mxCell id="TdsH9A1-HdxsGDDty9bt-214" value="" style="ellipse;whiteSpace=wrap;html=1;aspect=fixed;fillColor=#e51400;strokeColor=#B20000;fontColor=#ffffff;" vertex="1" parent="1">
          <mxGeometry x="890" y="760" width="20" height="20" as="geometry" />
        </mxCell>
        <mxCell id="TdsH9A1-HdxsGDDty9bt-215" value="" style="ellipse;whiteSpace=wrap;html=1;aspect=fixed;fillColor=#e51400;strokeColor=#B20000;fontColor=#ffffff;" vertex="1" parent="1">
          <mxGeometry x="70" y="270" width="20" height="20" as="geometry" />
        </mxCell>
        <mxCell id="TdsH9A1-HdxsGDDty9bt-216" value="" style="ellipse;whiteSpace=wrap;html=1;aspect=fixed;fillColor=#e51400;strokeColor=#B20000;fontColor=#ffffff;" vertex="1" parent="1">
          <mxGeometry x="847" y="450" width="20" height="20" as="geometry" />
        </mxCell>
        <mxCell id="TdsH9A1-HdxsGDDty9bt-217" value="" style="ellipse;whiteSpace=wrap;html=1;aspect=fixed;fillColor=#e51400;strokeColor=#B20000;fontColor=#ffffff;" vertex="1" parent="1">
          <mxGeometry x="484" y="1160" width="20" height="20" as="geometry" />
        </mxCell>
        <mxCell id="TdsH9A1-HdxsGDDty9bt-218" value="" style="ellipse;whiteSpace=wrap;html=1;aspect=fixed;fillColor=#e51400;strokeColor=#B20000;fontColor=#ffffff;" vertex="1" parent="1">
          <mxGeometry x="-290" y="470" width="20" height="20" as="geometry" />
        </mxCell>
        <mxCell id="TdsH9A1-HdxsGDDty9bt-219" value="" style="ellipse;whiteSpace=wrap;html=1;aspect=fixed;fillColor=#e51400;strokeColor=#B20000;fontColor=#ffffff;" vertex="1" parent="1">
          <mxGeometry x="-160" y="760" width="20" height="20" as="geometry" />
        </mxCell>
        <mxCell id="TdsH9A1-HdxsGDDty9bt-220" value="" style="ellipse;whiteSpace=wrap;html=1;aspect=fixed;fillColor=#e51400;strokeColor=#B20000;fontColor=#ffffff;" vertex="1" parent="1">
          <mxGeometry x="-160" y="870" width="20" height="20" as="geometry" />
        </mxCell>
        <mxCell id="TdsH9A1-HdxsGDDty9bt-221" value="" style="ellipse;whiteSpace=wrap;html=1;aspect=fixed;fillColor=#e51400;strokeColor=#B20000;fontColor=#ffffff;" vertex="1" parent="1">
          <mxGeometry x="-140" y="590" width="20" height="20" as="geometry" />
        </mxCell>
        <mxCell id="TdsH9A1-HdxsGDDty9bt-222" value="" style="ellipse;whiteSpace=wrap;html=1;aspect=fixed;fillColor=#e51400;strokeColor=#B20000;fontColor=#ffffff;" vertex="1" parent="1">
          <mxGeometry x="-310" y="820" width="20" height="20" as="geometry" />
        </mxCell>
        <mxCell id="TdsH9A1-HdxsGDDty9bt-223" value="" style="ellipse;whiteSpace=wrap;html=1;aspect=fixed;fillColor=#e51400;strokeColor=#B20000;fontColor=#ffffff;" vertex="1" parent="1">
          <mxGeometry x="-270" y="690" width="20" height="20" as="geometry" />
        </mxCell>
        <mxCell id="TdsH9A1-HdxsGDDty9bt-224" value="" style="ellipse;whiteSpace=wrap;html=1;aspect=fixed;fillColor=#e51400;strokeColor=#B20000;fontColor=#ffffff;" vertex="1" parent="1">
          <mxGeometry x="-160" y="970" width="20" height="20" as="geometry" />
        </mxCell>
        <mxCell id="TdsH9A1-HdxsGDDty9bt-225" value="" style="ellipse;whiteSpace=wrap;html=1;aspect=fixed;fillColor=#e51400;strokeColor=#B20000;fontColor=#ffffff;" vertex="1" parent="1">
          <mxGeometry x="-470" y="680" width="20" height="20" as="geometry" />
        </mxCell>
        <mxCell id="TdsH9A1-HdxsGDDty9bt-226" value="" style="ellipse;whiteSpace=wrap;html=1;aspect=fixed;fillColor=#e51400;strokeColor=#B20000;fontColor=#ffffff;" vertex="1" parent="1">
          <mxGeometry x="-413" y="1080" width="20" height="20" as="geometry" />
        </mxCell>
        <mxCell id="TdsH9A1-HdxsGDDty9bt-228" value="" style="ellipse;whiteSpace=wrap;html=1;aspect=fixed;fillColor=#e51400;strokeColor=#000000;fontColor=#ffffff;strokeWidth=20;" vertex="1" parent="1">
          <mxGeometry x="290" y="710" width="100" height="100" as="geometry" />
        </mxCell>
        <mxCell id="TdsH9A1-HdxsGDDty9bt-229" value="" style="ellipse;whiteSpace=wrap;html=1;aspect=fixed;fillColor=#e51400;strokeColor=#B20000;fontColor=#ffffff;" vertex="1" parent="1">
          <mxGeometry x="190" y="700" width="20" height="20" as="geometry" />
        </mxCell>
        <mxCell id="TdsH9A1-HdxsGDDty9bt-230" value="" style="ellipse;whiteSpace=wrap;html=1;aspect=fixed;fillColor=#e51400;strokeColor=#B20000;fontColor=#ffffff;" vertex="1" parent="1">
          <mxGeometry x="230" y="710" width="20" height="20" as="geometry" />
        </mxCell>
        <mxCell id="TdsH9A1-HdxsGDDty9bt-231" value="" style="ellipse;whiteSpace=wrap;html=1;aspect=fixed;fillColor=#e51400;strokeColor=#B20000;fontColor=#ffffff;" vertex="1" parent="1">
          <mxGeometry x="240" y="790" width="20" height="20" as="geometry" />
        </mxCell>
        <mxCell id="TdsH9A1-HdxsGDDty9bt-232" value="" style="ellipse;whiteSpace=wrap;html=1;aspect=fixed;fillColor=#e51400;strokeColor=#B20000;fontColor=#ffffff;" vertex="1" parent="1">
          <mxGeometry x="384" y="820" width="20" height="20" as="geometry" />
        </mxCell>
        <mxCell id="TdsH9A1-HdxsGDDty9bt-234" value="" style="ellipse;whiteSpace=wrap;html=1;aspect=fixed;fillColor=#e51400;strokeColor=#B20000;fontColor=#ffffff;" vertex="1" parent="1">
          <mxGeometry x="300" y="670" width="20" height="20" as="geometry" />
        </mxCell>
        <mxCell id="TdsH9A1-HdxsGDDty9bt-235" value="" style="ellipse;whiteSpace=wrap;html=1;aspect=fixed;fillColor=#e51400;strokeColor=#B20000;fontColor=#ffffff;" vertex="1" parent="1">
          <mxGeometry x="410" y="710" width="20" height="20" as="geometry" />
        </mxCell>
        <mxCell id="TdsH9A1-HdxsGDDty9bt-236" value="" style="ellipse;whiteSpace=wrap;html=1;aspect=fixed;fillColor=#e51400;strokeColor=#B20000;fontColor=#ffffff;" vertex="1" parent="1">
          <mxGeometry x="444" y="820" width="20" height="20" as="geometry" />
        </mxCell>
        <mxCell id="TdsH9A1-HdxsGDDty9bt-237" value="" style="ellipse;whiteSpace=wrap;html=1;aspect=fixed;fillColor=#e51400;strokeColor=#B20000;fontColor=#ffffff;" vertex="1" parent="1">
          <mxGeometry x="230" y="740" width="20" height="20" as="geometry" />
        </mxCell>
        <mxCell id="TdsH9A1-HdxsGDDty9bt-238" value="" style="ellipse;whiteSpace=wrap;html=1;aspect=fixed;fillColor=#e51400;strokeColor=#B20000;fontColor=#ffffff;" vertex="1" parent="1">
          <mxGeometry x="250" y="696" width="20" height="20" as="geometry" />
        </mxCell>
        <mxCell id="TdsH9A1-HdxsGDDty9bt-239" value="" style="ellipse;whiteSpace=wrap;html=1;aspect=fixed;fillColor=#e51400;strokeColor=#B20000;fontColor=#ffffff;" vertex="1" parent="1">
          <mxGeometry x="256" y="727" width="20" height="20" as="geometry" />
        </mxCell>
        <mxCell id="TdsH9A1-HdxsGDDty9bt-240" value="" style="ellipse;whiteSpace=wrap;html=1;aspect=fixed;fillColor=#e51400;strokeColor=#B20000;fontColor=#ffffff;" vertex="1" parent="1">
          <mxGeometry x="414" y="745" width="20" height="20" as="geometry" />
        </mxCell>
        <mxCell id="TdsH9A1-HdxsGDDty9bt-241" value="" style="ellipse;whiteSpace=wrap;html=1;aspect=fixed;fillColor=#e51400;strokeColor=#B20000;fontColor=#ffffff;" vertex="1" parent="1">
          <mxGeometry x="393" y="788" width="20" height="20" as="geometry" />
        </mxCell>
        <mxCell id="TdsH9A1-HdxsGDDty9bt-242" value="" style="ellipse;whiteSpace=wrap;html=1;aspect=fixed;fillColor=#e51400;strokeColor=#B20000;fontColor=#ffffff;" vertex="1" parent="1">
          <mxGeometry x="380" y="690" width="20" height="20" as="geometry" />
        </mxCell>
        <mxCell id="TdsH9A1-HdxsGDDty9bt-243" value="" style="ellipse;whiteSpace=wrap;html=1;aspect=fixed;fillColor=#e51400;strokeColor=#B20000;fontColor=#ffffff;" vertex="1" parent="1">
          <mxGeometry x="250" y="760" width="20" height="20" as="geometry" />
        </mxCell>
        <mxCell id="TdsH9A1-HdxsGDDty9bt-244" value="" style="ellipse;whiteSpace=wrap;html=1;aspect=fixed;fillColor=#e51400;strokeColor=#B20000;fontColor=#ffffff;" vertex="1" parent="1">
          <mxGeometry x="330" y="829" width="20" height="20" as="geometry" />
        </mxCell>
        <mxCell id="TdsH9A1-HdxsGDDty9bt-245" value="" style="ellipse;whiteSpace=wrap;html=1;aspect=fixed;fillColor=#e51400;strokeColor=#B20000;fontColor=#ffffff;" vertex="1" parent="1">
          <mxGeometry x="410" y="810" width="20" height="20" as="geometry" />
        </mxCell>
        <mxCell id="TdsH9A1-HdxsGDDty9bt-246" value="" style="ellipse;whiteSpace=wrap;html=1;aspect=fixed;fillColor=#e51400;strokeColor=#B20000;fontColor=#ffffff;" vertex="1" parent="1">
          <mxGeometry x="180" y="808" width="20" height="20" as="geometry" />
        </mxCell>
        <mxCell id="TdsH9A1-HdxsGDDty9bt-247" value="" style="ellipse;whiteSpace=wrap;html=1;aspect=fixed;fillColor=#e51400;strokeColor=#B20000;fontColor=#ffffff;" vertex="1" parent="1">
          <mxGeometry x="460" y="730" width="20" height="20" as="geometry" />
        </mxCell>
        <mxCell id="TdsH9A1-HdxsGDDty9bt-248" value="" style="ellipse;whiteSpace=wrap;html=1;aspect=fixed;fillColor=#e51400;strokeColor=#B20000;fontColor=#ffffff;" vertex="1" parent="1">
          <mxGeometry x="245" y="859" width="20" height="20" as="geometry" />
        </mxCell>
        <mxCell id="TdsH9A1-HdxsGDDty9bt-249" value="" style="ellipse;whiteSpace=wrap;html=1;aspect=fixed;fillColor=#e51400;strokeColor=#B20000;fontColor=#ffffff;" vertex="1" parent="1">
          <mxGeometry x="276" y="610" width="20" height="20" as="geometry" />
        </mxCell>
        <mxCell id="TdsH9A1-HdxsGDDty9bt-250" value="" style="ellipse;whiteSpace=wrap;html=1;aspect=fixed;fillColor=#e51400;strokeColor=#B20000;fontColor=#ffffff;" vertex="1" parent="1">
          <mxGeometry x="200" y="620" width="20" height="20" as="geometry" />
        </mxCell>
        <mxCell id="TdsH9A1-HdxsGDDty9bt-251" value="" style="ellipse;whiteSpace=wrap;html=1;aspect=fixed;fillColor=#e51400;strokeColor=#B20000;fontColor=#ffffff;" vertex="1" parent="1">
          <mxGeometry x="130" y="730" width="20" height="20" as="geometry" />
        </mxCell>
        <mxCell id="TdsH9A1-HdxsGDDty9bt-252" value="" style="ellipse;whiteSpace=wrap;html=1;aspect=fixed;fillColor=#e51400;strokeColor=#B20000;fontColor=#ffffff;" vertex="1" parent="1">
          <mxGeometry x="484" y="700" width="20" height="20" as="geometry" />
        </mxCell>
        <mxCell id="TdsH9A1-HdxsGDDty9bt-253" value="" style="ellipse;whiteSpace=wrap;html=1;aspect=fixed;fillColor=#e51400;strokeColor=#B20000;fontColor=#ffffff;" vertex="1" parent="1">
          <mxGeometry x="200" y="780" width="20" height="20" as="geometry" />
        </mxCell>
        <mxCell id="TdsH9A1-HdxsGDDty9bt-254" value="" style="ellipse;whiteSpace=wrap;html=1;aspect=fixed;fillColor=#e51400;strokeColor=#B20000;fontColor=#ffffff;" vertex="1" parent="1">
          <mxGeometry x="245" y="828" width="20" height="20" as="geometry" />
        </mxCell>
        <mxCell id="TdsH9A1-HdxsGDDty9bt-255" value="" style="ellipse;whiteSpace=wrap;html=1;aspect=fixed;fillColor=#e51400;strokeColor=#B20000;fontColor=#ffffff;" vertex="1" parent="1">
          <mxGeometry x="374" y="848" width="20" height="20" as="geometry" />
        </mxCell>
        <mxCell id="TdsH9A1-HdxsGDDty9bt-256" value="" style="ellipse;whiteSpace=wrap;html=1;aspect=fixed;fillColor=#e51400;strokeColor=#B20000;fontColor=#ffffff;" vertex="1" parent="1">
          <mxGeometry x="470" y="765" width="20" height="20" as="geometry" />
        </mxCell>
        <mxCell id="TdsH9A1-HdxsGDDty9bt-257" value="" style="ellipse;whiteSpace=wrap;html=1;aspect=fixed;fillColor=#e51400;strokeColor=#B20000;fontColor=#ffffff;" vertex="1" parent="1">
          <mxGeometry x="360" y="640" width="20" height="20" as="geometry" />
        </mxCell>
        <mxCell id="TdsH9A1-HdxsGDDty9bt-258" value="" style="ellipse;whiteSpace=wrap;html=1;aspect=fixed;fillColor=#e51400;strokeColor=#B20000;fontColor=#ffffff;" vertex="1" parent="1">
          <mxGeometry x="670" y="180" width="20" height="20" as="geometry" />
        </mxCell>
        <mxCell id="TdsH9A1-HdxsGDDty9bt-275" value="" style="ellipse;whiteSpace=wrap;html=1;aspect=fixed;fillColor=#fad7ac;strokeColor=#b46504;opacity=20;" vertex="1" parent="1">
          <mxGeometry x="-560" y="-140" width="1640" height="1640" as="geometry" />
        </mxCell>
      </root>
    </mxGraphModel>
  </diagram>
</mxfile>
